<mxfile host="app.diagrams.net" agent="Mozilla/5.0 (Macintosh; Intel Mac OS X 10_15_7) AppleWebKit/537.36 (KHTML, like Gecko) Chrome/135.0.0.0 Safari/537.36" version="26.2.13">
  <diagram id="C5RBs43oDa-KdzZeNtuy" name="Page-1">
    <mxGraphModel dx="2955" dy="1235" grid="1" gridSize="10" guides="1" tooltips="1" connect="1" arrows="1" fold="1" page="1" pageScale="1" pageWidth="827" pageHeight="1169" math="0" shadow="0">
      <root>
        <mxCell id="WIyWlLk6GJQsqaUBKTNV-0" />
        <mxCell id="WIyWlLk6GJQsqaUBKTNV-1" parent="WIyWlLk6GJQsqaUBKTNV-0" />
        <mxCell id="US27OzeC4Ig7KXlExpVx-1" style="edgeStyle=orthogonalEdgeStyle;rounded=0;orthogonalLoop=1;jettySize=auto;html=1;" parent="WIyWlLk6GJQsqaUBKTNV-1" source="US27OzeC4Ig7KXlExpVx-0" edge="1">
          <mxGeometry relative="1" as="geometry">
            <mxPoint x="140.0000000000001" y="230" as="targetPoint" />
          </mxGeometry>
        </mxCell>
        <mxCell id="ZyqBTzjTeJVdCbaPTQHK-3" style="edgeStyle=orthogonalEdgeStyle;rounded=0;orthogonalLoop=1;jettySize=auto;html=1;" edge="1" parent="WIyWlLk6GJQsqaUBKTNV-1" source="US27OzeC4Ig7KXlExpVx-0" target="US27OzeC4Ig7KXlExpVx-7">
          <mxGeometry relative="1" as="geometry" />
        </mxCell>
        <mxCell id="ZyqBTzjTeJVdCbaPTQHK-6" style="edgeStyle=orthogonalEdgeStyle;rounded=0;orthogonalLoop=1;jettySize=auto;html=1;" edge="1" parent="WIyWlLk6GJQsqaUBKTNV-1" source="US27OzeC4Ig7KXlExpVx-0">
          <mxGeometry relative="1" as="geometry">
            <mxPoint x="140" y="450" as="targetPoint" />
          </mxGeometry>
        </mxCell>
        <mxCell id="US27OzeC4Ig7KXlExpVx-0" value="OPERATORE" style="rounded=0;whiteSpace=wrap;html=1;" parent="WIyWlLk6GJQsqaUBKTNV-1" vertex="1">
          <mxGeometry x="80" y="310" width="120" height="60" as="geometry" />
        </mxCell>
        <mxCell id="ZyqBTzjTeJVdCbaPTQHK-14" style="edgeStyle=orthogonalEdgeStyle;rounded=0;orthogonalLoop=1;jettySize=auto;html=1;" edge="1" parent="WIyWlLk6GJQsqaUBKTNV-1" source="US27OzeC4Ig7KXlExpVx-2" target="US27OzeC4Ig7KXlExpVx-4">
          <mxGeometry relative="1" as="geometry" />
        </mxCell>
        <mxCell id="US27OzeC4Ig7KXlExpVx-2" value="PARTE DI" style="rhombus;whiteSpace=wrap;html=1;" parent="WIyWlLk6GJQsqaUBKTNV-1" vertex="1">
          <mxGeometry x="80" y="170" width="120" height="60" as="geometry" />
        </mxCell>
        <mxCell id="ZyqBTzjTeJVdCbaPTQHK-1" style="edgeStyle=orthogonalEdgeStyle;rounded=0;orthogonalLoop=1;jettySize=auto;html=1;" edge="1" parent="WIyWlLk6GJQsqaUBKTNV-1" source="US27OzeC4Ig7KXlExpVx-4" target="US27OzeC4Ig7KXlExpVx-8">
          <mxGeometry relative="1" as="geometry" />
        </mxCell>
        <mxCell id="US27OzeC4Ig7KXlExpVx-4" value="TEAM" style="rounded=0;whiteSpace=wrap;html=1;" parent="WIyWlLk6GJQsqaUBKTNV-1" vertex="1">
          <mxGeometry x="280" y="170" width="120" height="60" as="geometry" />
        </mxCell>
        <mxCell id="ZyqBTzjTeJVdCbaPTQHK-5" style="edgeStyle=orthogonalEdgeStyle;rounded=0;orthogonalLoop=1;jettySize=auto;html=1;" edge="1" parent="WIyWlLk6GJQsqaUBKTNV-1" source="US27OzeC4Ig7KXlExpVx-7" target="ZyqBTzjTeJVdCbaPTQHK-4">
          <mxGeometry relative="1" as="geometry" />
        </mxCell>
        <mxCell id="US27OzeC4Ig7KXlExpVx-7" value="GESTIONE" style="rhombus;whiteSpace=wrap;html=1;" parent="WIyWlLk6GJQsqaUBKTNV-1" vertex="1">
          <mxGeometry x="280" y="310" width="120" height="60" as="geometry" />
        </mxCell>
        <mxCell id="ZyqBTzjTeJVdCbaPTQHK-2" style="edgeStyle=orthogonalEdgeStyle;rounded=0;orthogonalLoop=1;jettySize=auto;html=1;" edge="1" parent="WIyWlLk6GJQsqaUBKTNV-1" source="US27OzeC4Ig7KXlExpVx-8" target="US27OzeC4Ig7KXlExpVx-10">
          <mxGeometry relative="1" as="geometry" />
        </mxCell>
        <mxCell id="US27OzeC4Ig7KXlExpVx-8" value="LAVORA&lt;div&gt;IN&lt;/div&gt;" style="rhombus;whiteSpace=wrap;html=1;" parent="WIyWlLk6GJQsqaUBKTNV-1" vertex="1">
          <mxGeometry x="480" y="170" width="120" height="60" as="geometry" />
        </mxCell>
        <mxCell id="US27OzeC4Ig7KXlExpVx-10" value="SEDE" style="rounded=0;whiteSpace=wrap;html=1;" parent="WIyWlLk6GJQsqaUBKTNV-1" vertex="1">
          <mxGeometry x="480" y="30" width="120" height="60" as="geometry" />
        </mxCell>
        <mxCell id="ZyqBTzjTeJVdCbaPTQHK-10" style="edgeStyle=orthogonalEdgeStyle;rounded=0;orthogonalLoop=1;jettySize=auto;html=1;" edge="1" parent="WIyWlLk6GJQsqaUBKTNV-1" source="ZyqBTzjTeJVdCbaPTQHK-4">
          <mxGeometry relative="1" as="geometry">
            <mxPoint x="480" y="480" as="targetPoint" />
          </mxGeometry>
        </mxCell>
        <mxCell id="ZyqBTzjTeJVdCbaPTQHK-4" value="INTERVENTO" style="rounded=0;whiteSpace=wrap;html=1;" vertex="1" parent="WIyWlLk6GJQsqaUBKTNV-1">
          <mxGeometry x="280" y="450" width="120" height="60" as="geometry" />
        </mxCell>
        <mxCell id="ZyqBTzjTeJVdCbaPTQHK-8" style="edgeStyle=orthogonalEdgeStyle;rounded=0;orthogonalLoop=1;jettySize=auto;html=1;" edge="1" parent="WIyWlLk6GJQsqaUBKTNV-1" source="ZyqBTzjTeJVdCbaPTQHK-7">
          <mxGeometry relative="1" as="geometry">
            <mxPoint x="1.1368683772161603e-13" y="480" as="targetPoint" />
          </mxGeometry>
        </mxCell>
        <mxCell id="ZyqBTzjTeJVdCbaPTQHK-7" value="ASSISTENZA" style="rhombus;whiteSpace=wrap;html=1;" vertex="1" parent="WIyWlLk6GJQsqaUBKTNV-1">
          <mxGeometry x="80" y="450" width="120" height="60" as="geometry" />
        </mxCell>
        <mxCell id="ZyqBTzjTeJVdCbaPTQHK-9" value="UTENTE" style="rounded=0;whiteSpace=wrap;html=1;" vertex="1" parent="WIyWlLk6GJQsqaUBKTNV-1">
          <mxGeometry x="-120" y="450" width="120" height="60" as="geometry" />
        </mxCell>
        <mxCell id="ZyqBTzjTeJVdCbaPTQHK-13" style="edgeStyle=orthogonalEdgeStyle;rounded=0;orthogonalLoop=1;jettySize=auto;html=1;entryX=0.5;entryY=1;entryDx=0;entryDy=0;" edge="1" parent="WIyWlLk6GJQsqaUBKTNV-1" source="ZyqBTzjTeJVdCbaPTQHK-11" target="ZyqBTzjTeJVdCbaPTQHK-12">
          <mxGeometry relative="1" as="geometry" />
        </mxCell>
        <mxCell id="ZyqBTzjTeJVdCbaPTQHK-11" value="SU" style="rhombus;whiteSpace=wrap;html=1;" vertex="1" parent="WIyWlLk6GJQsqaUBKTNV-1">
          <mxGeometry x="480" y="450" width="120" height="60" as="geometry" />
        </mxCell>
        <mxCell id="ZyqBTzjTeJVdCbaPTQHK-12" value="MEZZO" style="rounded=0;whiteSpace=wrap;html=1;" vertex="1" parent="WIyWlLk6GJQsqaUBKTNV-1">
          <mxGeometry x="480" y="310" width="120" height="60" as="geometry" />
        </mxCell>
      </root>
    </mxGraphModel>
  </diagram>
</mxfile>
